<?xml version="1.0" encoding="utf-8"?>
<!-- Generator: Adobe Illustrator 23.0.1, SVG Export Plug-In . SVG Version: 6.00 Build 0)  -->
<svg version="1.1" id="Layer_2" xmlns="http://www.w3.org/2000/svg" xmlns:xlink="http://www.w3.org/1999/xlink" x="0px" y="0px"
	 viewBox="0 0 120 71" style="enable-background:new 0 0 120 71;" xml:space="preserve">
<style type="text/css">
	.st0{fill:#FFECB3;stroke:#004D40;stroke-width:1.0531;stroke-miterlimit:10;}
</style>
<circle class="st0" cx="62.71" cy="9.71" r="7.73"/>
<path class="st0" d="M101.28,12.13c0,0-24.05,2.82-32.06,11.71c0,0-6.42,10.89-6.47,29.76c-0.04-18.87-6.42-29.76-6.42-29.76
	c-8-8.89-32.06-11.71-32.06-11.71s11.3,3.02,20.4,8.71c5.74,3.6,9.99,9.15,11.98,15.63c1.99,6.49,5.15,18.16,6.08,29.2
	c0.93-11.04,4.1-22.71,6.08-29.2c1.98-6.48,6.23-12.03,11.98-15.63c9.1-5.7,20.4-8.71,20.4-8.71H101.28z"/>
<path class="st0" d="M36.61,19.84c0,0-9.72-7.79-23.08-5.71l-1.4,32.04c0,0,36.92-1.35,49.25,18.62c0,0-3.47-18.47-44.07-22.36
	l0.91-25.69C18.23,16.74,28.67,15.79,36.61,19.84z"/>
<path class="st0" d="M11.5,25.02H3.97L2.79,57.06c0,0,33.97-7.11,57.31,8.32c0,0-15.32-18.57-52.66-13.13l1.32-23.83h2.46
	L11.5,25.02z"/>
<path class="st0" d="M2.79,58.88L2,69.66c0,0,31.03-12.71,56.61-3.48c0,0-19.76-12.63-51.27-3.02l0.08-5.14L2.79,58.88z"/>
<path class="st0" d="M108.25,41.9c0.29-0.82,0.78-1.42,1.48-1.81c0.45-0.25,0.92-0.37,1.42-0.37c0.31,0,0.64,0.04,0.94,0.14
	c0.82,0.27,1.42,0.76,1.81,1.48c0.23,0.45,0.35,0.92,0.35,1.42c0,0.31-0.04,0.62-0.12,0.94c-1.09,3.04-1.83,6.37-2.24,9.98
	c-0.27,2.4-0.41,4.72-0.41,6.96c0,1.11,0.04,2.2,0.1,3.24c0.02,0.39,0.04,0.72,0.06,0.97c0.02,0.27,0.04,0.49,0.04,0.64
	c0,0.16,0,0.29,0,0.37c0,0.16,0,0.33-0.02,0.51c-0.02,0.29-0.12,1.01-0.35,2.18c-0.64-0.74-1.03-1.17-1.15-1.27
	c-0.16-0.16-0.29-0.31-0.39-0.43c-0.08-0.12-0.16-0.27-0.25-0.43c-0.08-0.14-0.18-0.37-0.29-0.64l-0.08-0.16
	c-0.92-2.18-1.54-4.68-1.85-7.49c-0.21-1.79-0.31-3.59-0.31-5.4c0-1.03,0.06-2.51,0.18-4.46C107.31,46.34,107.66,44.22,108.25,41.9z
	 M114.74,30.14c0.82,0.25,1.42,0.66,1.75,1.25c0.35,0.6,0.51,1.17,0.51,1.7c0,0.25-0.04,0.51-0.1,0.78
	c-0.25,0.84-0.66,1.44-1.25,1.79c-0.6,0.35-1.17,0.51-1.7,0.51c-0.27,0-0.53-0.04-0.8-0.1c-0.84-0.25-1.44-0.66-1.77-1.27
	c-0.35-0.6-0.51-1.17-0.51-1.7c0-0.25,0.04-0.51,0.1-0.78c0.25-0.84,0.66-1.44,1.25-1.79c0.57-0.33,1.15-0.49,1.66-0.49
	C114.17,30.03,114.43,30.06,114.74,30.14z"/>
<path class="st0" d="M98.03,64.96c0,0.84-0.31,1.58-0.9,2.18s-1.31,0.9-2.18,0.9c-0.86,0-1.58-0.31-2.18-0.9s-0.9-1.33-0.9-2.22
	c0.02-0.08,0.02-0.16,0.02-0.23v-0.23c0-1.97-0.35-4.21-1.07-6.76c-0.72-2.55-1.48-4.72-2.3-6.51c-1.19-2.55-2.46-4.89-3.84-7.02
	c-0.47-0.76-0.97-1.58-1.48-2.44l-0.43-0.76l-0.49-1.85l1.81,0.6c0.7,0.39,1.54,1.07,2.48,2.01c0.97,0.97,1.7,1.75,2.22,2.36
	c2.59,3,4.64,6.2,6.16,9.65c1.52-3.45,3.57-6.65,6.16-9.65c0.51-0.62,1.25-1.4,2.22-2.36c0.94-0.94,1.79-1.62,2.48-2.01l1.79-0.6
	c-0.21,0.82-0.31,1.29-0.35,1.44c-0.04,0.12-0.08,0.25-0.1,0.33c-0.02,0.08-0.06,0.16-0.1,0.25c-0.04,0.08-0.1,0.16-0.16,0.27
	c-0.04,0.08-0.1,0.21-0.21,0.33c-0.49,0.86-0.99,1.68-1.46,2.44c-1.38,2.14-2.65,4.48-3.84,7.02c-0.82,1.83-1.62,4.09-2.36,6.78
	c-0.66,2.38-1.01,4.5-1.01,6.37C98.01,64.55,98.03,64.76,98.03,64.96z"/>
<path class="st0" d="M74.06,41.9c0.29-0.82,0.78-1.42,1.48-1.81c0.45-0.25,0.92-0.37,1.42-0.37c0.31,0,0.64,0.04,0.94,0.14
	c0.82,0.27,1.42,0.76,1.81,1.48c0.23,0.45,0.35,0.92,0.35,1.42c0,0.31-0.04,0.62-0.12,0.94c-1.09,3.04-1.83,6.37-2.24,9.98
	c-0.27,2.4-0.41,4.72-0.41,6.96c0,1.11,0.04,2.2,0.1,3.24c0.02,0.39,0.04,0.72,0.06,0.97c0.02,0.27,0.04,0.49,0.04,0.64
	c0,0.16,0,0.29,0,0.37c0,0.16,0,0.33-0.02,0.51c-0.02,0.29-0.12,1.01-0.35,2.18c-0.64-0.74-1.03-1.17-1.15-1.27
	c-0.16-0.16-0.29-0.31-0.39-0.43c-0.08-0.12-0.16-0.27-0.25-0.43c-0.08-0.14-0.18-0.37-0.29-0.64l-0.08-0.16
	c-0.92-2.18-1.54-4.68-1.85-7.49c-0.21-1.79-0.31-3.59-0.31-5.4c0-1.03,0.06-2.51,0.18-4.46C73.12,46.34,73.47,44.22,74.06,41.9z
	 M80.55,30.14c0.82,0.25,1.42,0.66,1.75,1.25c0.35,0.6,0.51,1.17,0.51,1.7c0,0.25-0.04,0.51-0.1,0.78
	c-0.25,0.84-0.66,1.44-1.25,1.79c-0.6,0.35-1.17,0.51-1.7,0.51c-0.27,0-0.53-0.04-0.8-0.1c-0.84-0.25-1.44-0.66-1.77-1.27
	c-0.35-0.6-0.51-1.17-0.51-1.7c0-0.25,0.04-0.51,0.1-0.78c0.25-0.84,0.66-1.44,1.25-1.79c0.57-0.33,1.15-0.49,1.66-0.49
	C79.98,30.03,80.24,30.06,80.55,30.14z"/>
</svg>
